<?xml version="1.0" encoding="UTF-8"?>
<svg width="512" height="512" viewBox="0 0 256 256" fill="none" xmlns="http://www.w3.org/2000/svg">
    <rect width="256" height="256" fill="#F7DF1E"/>
    <path d="M67.312 213.932L86.902 202.076C91.642 210.777 95.928 218.447 106.702 218.447C117.022 218.447 123.477 214.374 123.477 199.516V117.997H147.459V199.962C147.459 225.033 132.389 236.002 107.902 236.002C85.862 236.002 73.952 226.147 67.312 213.932" fill="black"/>
    <path d="M152.083 211.275L171.673 200.086C178.125 210.516 186.438 218.447 201.667 218.447C214.604 218.447 223.014 211.796 223.014 202.076C223.014 190.551 213.667 186.591 197.402 180.468L188.572 177.324C162.667 167.575 146.146 155.345 146.146 126.85C146.146 100.637 165.963 81.0156 200.229 81.0156C225.313 81.0156 243.379 90.8776 256 113.947L237.271 126.001C232.188 115.193 226.167 110.712 215.063 110.712C203.646 110.712 196.438 117.997 196.438 126.85C196.438 137.852 203.646 141.812 218.729 147.483L227.559 150.627C257.813 162.152 274.333 173.958 274.333 203.324C274.333 234.84 249.938 248 202.417 248C155.771 248 133.813 233.603 152.083 211.275" fill="black"/>
</svg> 