<?xml version="1.0" encoding="UTF-8"?>
<svg width="512" height="512" viewBox="0 0 256 256" xmlns="http://www.w3.org/2000/svg">
    <path d="M115.374 134.938C107.031 96.8125 87.8125 83.5938 84.5938 75.875C83.2188 72.5 81.9062 65.5625 81.9062 65.5625C81.8125 65.2812 81.7188 65 81.5938 64.7188C81.5938 64.9062 81.5312 66.0312 81.5 67.0625V67.1562C81.5 67.1562 81.3125 71.5625 81.6875 77.5625C82.5312 90.5625 86.5625 108.562 98.0625 127.812C98.0625 127.812 99.0625 129.438 100.156 131.125C101.219 132.75 102.375 134.438 103.562 136.125C106.031 139.562 108.719 143 111.562 146.375C112.969 147.969 114.406 149.562 115.875 151.125C116.625 151.938 117.344 152.688 118.094 153.438C119.562 154.875 121.062 156.312 122.562 157.688C123.312 158.375 124.062 159.062 124.812 159.75C126.375 161.125 127.938 162.438 129.5 163.75C130.25 164.375 131 165 131.75 165.625C133.375 166.875 134.969 168.125 136.562 169.312C137.312 169.875 138.062 170.438 138.812 171C140.469 172.125 142.094 173.25 143.719 174.312C144.469 174.812 145.219 175.312 145.969 175.812C147.656 176.812 149.312 177.812 150.969 178.75C151.719 179.188 152.469 179.625 153.219 180.062C154.938 180.938 156.625 181.812 158.312 182.625C159.062 183 159.812 183.375 160.562 183.75C162.312 184.5 164.031 185.25 165.75 185.938C166.5 186.25 167.25 186.562 168 186.875C169.781 187.5 171.531 188.125 173.281 188.688C174.031 188.938 174.781 189.188 175.531 189.438C177.344 189.938 179.125 190.438 180.906 190.875C181.656 191.062 182.406 191.25 183.156 191.438C185 191.812 186.812 192.188 188.625 192.5C189.375 192.625 190.125 192.75 190.875 192.875C192.75 193.125 194.594 193.375 196.406 193.562C197.156 193.625 197.906 193.688 198.656 193.75C200.594 193.875 202.5 194 204.375 194.062C205.125 194.062 205.875 194.062 206.625 194.062C208.625 194.062 210.594 194.062 212.531 193.938C213.281 193.938 214.031 193.875 214.781 193.812C216.781 193.688 218.75 193.5 220.688 193.25C221.438 193.188 222.188 193.125 222.938 193C224.938 192.688 226.906 192.375 228.844 191.938C229.594 191.812 230.344 191.688 231.094 191.562C233.094 191.125 235.062 190.625 237 190.125C237.75 189.938 238.5 189.75 239.25 189.562C241.25 188.938 243.219 188.312 245.156 187.625C245.906 187.375 246.656 187.125 247.406 186.875C249.406 186.125 251.375 185.312 253.312 184.5C254.062 184.188 254.812 183.875 255.562 183.562C255.562 183.562 241.219 233.625 189.219 246.125C189.219 246.125 157.219 252.812 127.219 230.812L127.219 230.75C127.219 230.75 121.219 183.75 115.375 134.938L115.374 134.938Z" fill="#00ED64"/>
    <path d="M127.219 230.812V230.75C127.219 230.75 121.219 183.75 115.375 134.938C107.031 96.8125 87.8125 83.5938 84.5938 75.875C83.2188 72.5 81.9062 65.5625 81.9062 65.5625C81.8125 65.2812 81.7188 65 81.5938 64.7188C81.5938 64.9062 81.5312 66.0312 81.5 67.0625V67.1562C81.5 67.1562 81.3125 71.5625 81.6875 77.5625C82.5312 90.5625 86.5625 108.562 98.0625 127.812L127.219 230.812Z" fill="#0DB35B"/>
    <path d="M115.375 134.938C107.031 96.8125 87.8125 83.5938 84.5938 75.875C83.2188 72.5 81.9062 65.5625 81.9062 65.5625C81.8125 65.2812 81.7188 65 81.5938 64.7188C81.5938 64.9062 81.5312 66.0312 81.5 67.0625V67.1562C81.5 67.1562 81.3125 71.5625 81.6875 77.5625C82.5312 90.5625 86.5625 108.562 98.0625 127.812C98.0625 127.812 99.0625 129.438 100.156 131.125C101.219 132.75 102.375 134.438 103.562 136.125C106.031 139.562 108.719 143 111.562 146.375C112.969 147.969 114.406 149.562 115.875 151.125C116.625 151.938 117.344 152.688 118.094 153.438C119.562 154.875 121.062 156.312 122.562 157.688C123.312 158.375 124.062 159.062 124.812 159.75C126.375 161.125 127.938 162.438 129.5 163.75C130.25 164.375 131 165 131.75 165.625C133.375 166.875 134.969 168.125 136.562 169.312C137.312 169.875 138.062 170.438 138.812 171C140.469 172.125 142.094 173.25 143.719 174.312C144.469 174.812 145.219 175.312 145.969 175.812C147.656 176.812 149.312 177.812 150.969 178.75C151.719 179.188 152.469 179.625 153.219 180.062C154.938 180.938 156.625 181.812 158.312 182.625C159.062 183 159.812 183.375 160.562 183.75C162.312 184.5 164.031 185.25 165.75 185.938C166.5 186.25 167.25 186.562 168 186.875C169.781 187.5 171.531 188.125 173.281 188.688C174.031 188.938 174.781 189.188 175.531 189.438C177.344 189.938 179.125 190.438 180.906 190.875C181.656 191.062 182.406 191.25 183.156 191.438C185 191.812 186.812 192.188 188.625 192.5C189.375 192.625 190.125 192.75 190.875 192.875C192.75 193.125 194.594 193.375 196.406 193.562C197.156 193.625 197.906 193.688 198.656 193.75C200.594 193.875 202.5 194 204.375 194.062C205.125 194.062 205.875 194.062 206.625 194.062C208.625 194.062 210.594 194.062 212.531 193.938C213.281 193.938 214.031 193.875 214.781 193.812C216.781 193.688 218.75 193.5 220.688 193.25C221.438 193.188 222.188 193.125 222.938 193C224.938 192.688 226.906 192.375 228.844 191.938C229.594 191.812 230.344 191.688 231.094 191.562C233.094 191.125 235.062 190.625 237 190.125C237.75 189.938 238.5 189.75 239.25 189.562C241.25 188.938 243.219 188.312 245.156 187.625C245.906 187.375 246.656 187.125 247.406 186.875C249.406 186.125 251.375 185.312 253.312 184.5C254.062 184.188 254.812 183.875 255.562 183.562C255.562 183.562 241.219 233.625 189.219 246.125C189.219 246.125 157.219 252.812 127.219 230.812L127.219 230.75C127.219 230.75 121.219 183.75 115.375 134.938Z" fill="#11AA52"/>
</svg> 