<?xml version="1.0" encoding="UTF-8"?>
<svg width="512" height="512" viewBox="0 0 256 256" xmlns="http://www.w3.org/2000/svg">
    <path d="M235.648 194.212c-13.918-.347-24.705 1.045-33.752 4.872-2.61 1.043-6.786 1.044-7.134 4.35 1.392 1.392 1.566 3.654 2.784 5.567 2.09 3.479 5.741 8.177 9.047 10.614 3.653 2.783 7.308 5.566 11.137 8.002 6.786 4.176 14.442 6.611 21.053 10.787 3.826 2.436 7.654 5.567 11.481 8.177 1.914 1.39 3.131 3.652 5.568 4.523v-.521c-1.219-1.567-1.567-3.827-2.784-5.568-1.738-1.74-3.48-3.306-5.22-5.046-5.045-6.784-11.308-12.7-18.094-17.572-5.567-3.828-17.747-9.047-20.008-15.484 0 0-.175-.173-.348-.347 3.827-.348 8.35-1.74 12.005-2.784 5.915-1.567 11.308-1.218 17.398-2.784 2.783-.696 5.567-1.566 8.35-2.436v-1.565c-3.13-3.132-5.392-7.307-8.699-10.265-8.873-7.657-18.617-15.137-28.707-21.4-5.394-3.48-12.354-5.742-18.095-8.699-2.088-1.044-5.567-1.566-6.784-3.306-3.13-3.827-4.873-8.872-7.134-13.396-5.044-9.57-9.917-20.182-14.267-30.272-3.13-6.786-5.044-13.572-8.872-19.834-17.92-29.577-37.406-47.497-67.33-65.07-6.438-3.653-14.093-5.219-22.27-7.133-4.348-.173-8.699-.522-13.048-.695-2.784-1.218-5.568-4.523-8.004-6.089C34.006 4.573 8.429-8.996 1.122 8.026c-4.698 10.961 6.96 21.749 10.96 27.317 2.96 3.827 6.786 8.178 8.874 12.527 1.218 2.956 1.565 6.09 2.783 9.221 2.785 7.653 5.393 16.18 9.048 23.314 1.914 3.653 4.001 7.48 6.437 10.786 1.392 1.913 3.827 2.784 4.35 5.915-2.435 3.48-2.61 8.7-4.003 13.049-6.263 19.66-3.826 44.017 5.046 58.458 2.783 4.348 9.395 13.92 18.269 10.265 7.83-3.131 6.09-13.048 8.35-21.747.522-2.088.176-3.479 1.219-4.872v.347c2.436 4.87 4.871 9.569 7.133 14.44 5.394 8.524 14.788 17.398 22.618 23.314 4.177 3.13 7.482 8.524 12.702 10.438v-.521h-.348c-1.044-1.566-2.61-2.261-4.003-3.48-3.131-3.13-6.611-7.307-9.047-10.96-7.306-9.744-13.745-20.53-19.486-31.666-2.783-5.392-5.22-11.308-7.481-16.701-1.045-2.088-1.045-5.22-2.784-6.263-2.61 3.827-6.437 7.133-8.351 11.83-3.304 7.481-3.653 16.702-4.871 26.271-.696.176-.349 0-.697.347-5.566-1.389-7.48-7.133-9.569-12.005-5.22-12.354-6.09-32.186-1.565-46.452 1.218-3.654 6.438-15.136 4.35-18.616-1.044-3.306-4.525-5.22-6.438-7.829-2.261-3.306-4.698-7.48-6.263-11.308-4.176-10.265-6.264-21.573-10.787-31.839-2.088-4.871-5.915-9.917-8.873-14.267-3.305-4.871-7.133-8.35-9.744-14.092-1.045-2.348-2.438-6.089-.87-8.699.348-1.74 1.043-2.435 2.436-2.957 2.262-1.915 8.7 1.218 10.96 2.436 6.438 2.957 11.83 5.741 17.225 9.742 2.435 1.914 5.045 5.567 8.176 6.438h3.654c5.568 1.219 11.83.353 17.05 1.913 9.222 3.654 17.573 8.873 25.054 14.615 22.792 17.399 41.408 42.1 54.109 71.509 2.088 4.697 2.957 9.046 4.871 13.919 3.653 8.526 8.003 17.225 11.656 25.576 3.653 8.177 7.133 16.528 12.353 23.314 2.61 3.653 13.048 5.567 17.746 7.481 3.48 1.565 8.874 2.958 12.005 4.871 5.915 3.652 11.656 7.83 17.224 11.83 2.784 2.088 11.307 6.264 11.83 9.742z" fill="#00546B"/>
    <path d="M58.186 43.022c-2.957 0-5.044.348-7.133.87v.347h.348c1.393 2.784 3.827 4.698 5.567 7.133 1.393 2.783 2.61 5.568 4.003 8.351.173-.173.347-.348.347-.348 2.437-1.739 3.654-4.524 3.654-8.7-1.044-1.217-1.218-2.435-2.088-3.653-1.043-1.741-3.306-2.61-4.698-4z" fill="#00546B"/>
</svg> 