<?xml version="1.0" encoding="UTF-8"?>
<svg width="512" height="512" viewBox="0 0 256 256" xmlns="http://www.w3.org/2000/svg">
    <path d="M119.878 41.9375C124.797 39.1875 131.203 39.1875 136.125 41.9375L226.5 93.75C231.422 96.5 234.625 101.766 234.625 107.375V211C234.625 216.609 231.422 221.875 226.5 224.625L136.125 276.438C131.203 279.188 124.797 279.188 119.875 276.438L29.5 224.625C24.5781 221.875 21.375 216.609 21.375 211V107.375C21.375 101.766 24.5781 96.5 29.5 93.75L119.878 41.9375Z" fill="#539E43"/>
    <path d="M123.375 53.625C125.297 52.5625 127.578 52.5625 129.5 53.625L182.75 84.5C184.672 85.5625 185.875 87.5625 185.875 89.75V151.5C185.875 153.688 184.672 155.688 182.75 156.75L129.5 187.625C127.578 188.688 125.297 188.688 123.375 187.625L70.125 156.75C68.2031 155.688 67 153.688 67 151.5V89.75C67 87.5625 68.2031 85.5625 70.125 84.5L123.375 53.625Z" fill="white"/>
</svg> 